<svg xmlns="http://www.w3.org/2000/svg" enable-background="new 0 0 600 500" viewBox="0 0 600 500" id="meeting-schedule"><g><path fill="#d2e4ff" d="M94.1 440.1h424.3c19.3 0 35.8-15.7 37.6-36.4v-.4c.9-10.7-1.3-22.6-9.1-29.2-6.3-5.3-15-6.4-21-12.1-9.2-8.8-8.1-24.4-5.7-37.3 4.7-25.6 11.3-50.8 19.9-75.2 4.6-13.2 9.9-26.9 8.5-40.9-.4-3.5-1.2-7.2-3.5-9.8-7.4-8.2-21.2 1.1-30.6-4.2-8.3-4.7-8.3-17.5-6.1-27.3 5-22.5 14.8-46.9 5.1-67.5-8.3-17.7-27.9-25.2-46-29-24.9-5.2-50.8-6.3-75.6-.2-28.3 7-53.9 23.1-81.5 33-27.6 9.8-60.2 12.3-83.6-6.1-11-8.6-19.1-21.2-30.7-28.8-13.6-8.8-30.5-9.7-46.3-8-29.2 3.2-57.7 14.7-81.6 33-6.7 5.1-13.5 11.4-15.5 20.1-3.6 15.7 9.8 29.1 19.1 41.8 16.4 22.2 22.6 52.8 16.2 80.3-7 30.2-27.5 54.9-37.1 84.2-9.7 29.5-7.6 63.3 5.8 91.2 1.9 3.9 4 7.7 6.2 11.3 7.1 11 18.8 17.5 31.2 17.5z" opacity=".3"></path><path fill="#c6e2fa" d="M197.1 153.3h-39.8c-.2 0-.4-.2-.4-.4s.2-.4.4-.4h39.8c.2 0 .4.2.4.4s-.2.4-.4.4zM197.1 173h-39.8c-.2 0-.4-.2-.4-.4s.2-.4.4-.4h39.8c.2 0 .4.2.4.4s-.2.4-.4.4zM189.9 163.1h-56.3c-.2 0-.4-.2-.4-.4s.2-.4.4-.4h56.3c.2 0 .4.2.4.4s-.2.4-.4.4z"></path><path fill="#c6e2fa" d="M165.5 153.3c-.2 0-.4-.2-.4-.4v-8.4c0-.2.2-.4.4-.4s.4.2.4.4v8.4c0 .2-.2.4-.4.4zM179.5 163.1c-.2 0-.4-.2-.4-.4v-9.9c0-.2.2-.4.4-.4s.4.2.4.4v9.9c0 .2-.2.4-.4.4zM168.9 172.6c-.2 0-.4-.2-.4-.4v-9.5c0-.2.2-.4.4-.4s.4.2.4.4v9.5c-.1.3-.2.4-.4.4z"></path><path d="M247.2 232c-2.7-.2-5.3-.6-8-1.1l.2-1c2.6.5 5.3.8 7.9 1l-.1 1.1zm-15.8-3c-2.5-.8-5.1-1.7-7.6-2.7l.4-.9c2.5 1 5 1.9 7.5 2.7l-.3.9zm-14.9-6.2c-2.3-1.2-4.7-2.6-6.9-4.1l.5-.8c2.3 1.5 4.6 2.8 6.9 4l-.5.9zm-13.5-8.7c-2.1-1.6-4.2-3.3-6.2-5.1l.7-.7c2 1.8 4.1 3.5 6.1 5.1l-.6.7zm-12-10.6c-1.8-1.9-3.7-3.9-5.4-5.9l.8-.7c1.8 2 3.6 4 5.4 5.9l-.8.7zm-10.5-12.2c-1.6-2.1-3.2-4.3-4.7-6.5l.8-.6c1.5 2.2 3.1 4.4 4.7 6.5l-.8.6zm-9-13.3-.2-.3c-1.3-2.2-2.6-4.5-3.7-6.7l.9-.5c1.1 2.2 2.4 4.4 3.7 6.6l.2.3-.9.6zm-7.4-14.2c-1.1-2.5-2.1-5-3-7.4l.9-.3c.9 2.4 1.9 4.9 3 7.4l-.9.3zm-5.5-15.1c-.7-2.6-1.3-5.3-1.8-7.8l1-.2c.5 2.6 1 5.2 1.8 7.8l-1 .2zm290.4-8.6v-1c2.7-.1 5.3-.3 7.9-.6l.1 1c-2.6.3-5.3.5-8 .6zm-8.1-.1c-2.7-.1-5.4-.4-8-.8l.1-1c2.6.4 5.3.6 7.9.8v1zm24-1.8-.2-1c2.6-.6 5.2-1.3 7.7-2.1l.3.9c-2.5.9-5.1 1.6-7.8 2.2zm-39.9-.4c-2.6-.6-5.2-1.3-7.8-2l.3-1c2.6.8 5.2 1.4 7.7 2l-.2 1zm-15.4-4.6c-2.5-.9-5-1.9-7.5-2.9l.4-.9c2.5 1.1 5 2 7.4 2.9l-.3.9zm70.6-.1-.4-.9c2.4-1.1 4.8-2.4 7-3.7l.5.9c-2.2 1.3-4.6 2.6-7.1 3.7zm-324.4-.2c-.1-1.7-.2-3.4-.2-5 0-1 0-2 .1-3h1c0 1-.1 2-.1 3 0 1.6.1 3.3.2 5h-1zm239.1-5.9c-2.3-1.1-4.7-2.3-7.2-3.6l.5-.9c2.4 1.3 4.8 2.5 7.1 3.6l-.4.9zm99-2.4-.6-.8c1.7-1.4 3.4-2.9 4.9-4.5l.7.7c-1.6 1.7-3.3 3.2-5 4.6zm-113.2-5.1c-2.2-1.3-4.5-2.6-6.9-4.1l.5-.9c2.4 1.4 4.7 2.8 6.9 4.1l-.5.9zM157.5 117l-1-.2c.4-2.7 1.1-5.3 1.8-7.9l1 .3c-.8 2.6-1.4 5.2-1.8 7.8zm209.5-5.8c-2.3-1.4-4.5-2.9-6.7-4.3l.5-.8c2.2 1.5 4.5 2.9 6.7 4.3l-.5.8zm-13.5-8.7-6.7-4.4.5-.8 6.7 4.4-.5.8zm-191.4-.6-.9-.4c1.1-2.5 2.5-4.8 3.9-7l.8.6c-1.4 2-2.7 4.3-3.8 6.8zm178.1-8.2c-2.2-1.4-4.5-2.9-6.7-4.3l.5-.8c2.3 1.4 4.5 2.9 6.8 4.3l-.6.8zm-169.4-5-.7-.7c1.8-1.9 3.8-3.7 5.9-5.5l.6.8c-2.1 1.8-4 3.6-5.8 5.4zm155.8-3.4c-2.4-1.4-4.7-2.8-6.9-4l.5-.9c2.2 1.3 4.5 2.6 6.9 4l-.5.9zm-143.4-6.5-.5-.8c2.2-1.3 4.5-2.7 7-4l.5.9c-2.6 1.3-4.9 2.6-7 3.9zm129.5-1.3c-2.4-1.3-4.8-2.4-7.2-3.5l.4-.9c2.3 1.1 4.8 2.3 7.2 3.5l-.4.9zm-115.4-6-.4-.9c2.4-1.1 5-2 7.5-2.9l.3.9c-2.5.9-5 1.9-7.4 2.9zm100.9-.7c-2.5-1-5-2-7.5-2.8l.3-.9c2.5.8 5 1.8 7.5 2.8l-.3.9zm-85.9-4.6-.3-1c2.5-.7 5.2-1.4 7.8-2l.2 1c-2.6.6-5.2 1.2-7.7 2zm70.8-.6c-2.5-.7-5.1-1.3-7.7-1.9l.2-1c2.6.5 5.2 1.2 7.8 1.9l-.3 1zm-55.3-2.9-.2-1c2.6-.4 5.3-.8 8-1l.1 1c-2.6.2-5.3.6-7.9 1zm39.7-.3c-2.6-.4-5.3-.7-7.9-.9l.1-1c2.7.2 5.4.5 8 .9l-.2 1zm-23.8-1.3v-1c2.7-.1 5.4-.1 8-.1v1c-2.7 0-5.4 0-8 .1z"></path><path fill="#bdd6ff" d="M452.6 101.9v272.6c0 .8-.1 1.6-.2 2.3-1.1 5.4-6.1 9.5-12.1 9.5H215.6c-6.8 0-12.3-5.3-12.3-11.8V101.9c0-4.3 2.4-8 5.9-10.1.7-.4 1.4-.7 2.2-1l1.2-.3c1-.2 2-.4 3.1-.4h224.6c1.1 0 2.1.1 3.1.4l1.2.3c.8.3 1.5.6 2.2 1 1.2.7 2.2 1.6 3.1 2.6.2.3.5.6.7.9 1.2 1.9 2 4.2 2 6.6z"></path><path fill="#fff" d="M221.7 103.7c0 2-1.7 3.6-3.8 3.6-2.1 0-3.8-1.6-3.8-3.6s1.7-3.6 3.8-3.6c2.1-.1 3.8 1.6 3.8 3.6zM243 103.7c0 2-1.7 3.6-3.8 3.6s-3.8-1.6-3.8-3.6 1.7-3.6 3.8-3.6 3.8 1.6 3.8 3.6zM232.4 103.7c0 2-1.7 3.6-3.8 3.6-2.1 0-3.8-1.6-3.8-3.6s1.7-3.6 3.8-3.6c2.1-.1 3.8 1.6 3.8 3.6zM223.9 361.3c-.6 0-1-.4-1-1V137.5c0-.6.4-1 1-1s1 .4 1 1v222.8c0 .5-.5 1-1 1zM265.4 361.3c-.6 0-1-.4-1-1V137.5c0-.6.4-1 1-1s1 .4 1 1v222.8c0 .5-.4 1-1 1zM306.9 361.3c-.6 0-1-.4-1-1V137.5c0-.6.4-1 1-1s1 .4 1 1v222.8c0 .5-.4 1-1 1zM348.5 361.3c-.6 0-1-.4-1-1V137.5c0-.6.4-1 1-1s1 .4 1 1v222.8c0 .5-.5 1-1 1zM390 361.3c-.6 0-1-.4-1-1V137.5c0-.6.4-1 1-1s1 .4 1 1v222.8c0 .5-.4 1-1 1zM431.5 361.3c-.6 0-1-.4-1-1V137.5c0-.6.4-1 1-1s1 .4 1 1v222.8c0 .5-.4 1-1 1z"></path><path fill="#fff" d="M431.5 138.7H223.9c-.6 0-1-.4-1-1s.4-1 1-1h207.7c.6 0 1 .4 1 1s-.5 1-1.1 1zM431.5 170.5H223.9c-.6 0-1-.4-1-1s.4-1 1-1h207.7c.6 0 1 .4 1 1s-.5 1-1.1 1zM431.5 202.3H223.9c-.6 0-1-.4-1-1s.4-1 1-1h207.7c.6 0 1 .4 1 1s-.5 1-1.1 1zM431.5 234.1H223.9c-.6 0-1-.4-1-1s.4-1 1-1h207.7c.6 0 1 .4 1 1s-.5 1-1.1 1zM431.5 265.9H223.9c-.6 0-1-.4-1-1s.4-1 1-1h207.7c.6 0 1 .4 1 1s-.5 1-1.1 1zM431.5 297.7H223.9c-.6 0-1-.4-1-1s.4-1 1-1h207.7c.6 0 1 .4 1 1s-.5 1-1.1 1zM431.5 329.5H223.9c-.6 0-1-.4-1-1s.4-1 1-1h207.7c.6 0 1 .4 1 1s-.5 1-1.1 1zM431.5 361.3H223.9c-.6 0-1-.4-1-1s.4-1 1-1h207.7c.6 0 1 .4 1 1s-.5 1-1.1 1zM249.2 156.7h-9.7c-1.6 0-2.9-1.3-2.9-2.9v-.2c0-1.6 1.3-2.9 2.9-2.9h9.7c1.6 0 2.9 1.3 2.9 2.9v.2c0 1.6-1.3 2.9-2.9 2.9zM290.8 156.7H281c-1.6 0-2.9-1.3-2.9-2.9v-.2c0-1.6 1.3-2.9 2.9-2.9h9.7c1.6 0 2.9 1.3 2.9 2.9v.2c.1 1.6-1.2 2.9-2.8 2.9zM332.3 156.7h-9.7c-1.6 0-2.9-1.3-2.9-2.9v-.2c0-1.6 1.3-2.9 2.9-2.9h9.7c1.6 0 2.9 1.3 2.9 2.9v.2c.1 1.6-1.3 2.9-2.9 2.9zM373.9 156.7h-9.7c-1.6 0-2.9-1.3-2.9-2.9v-.2c0-1.6 1.3-2.9 2.9-2.9h9.7c1.6 0 2.9 1.3 2.9 2.9v.2c0 1.6-1.3 2.9-2.9 2.9zM415.5 156.7h-9.7c-1.6 0-2.9-1.3-2.9-2.9v-.2c0-1.6 1.3-2.9 2.9-2.9h9.7c1.6 0 2.9 1.3 2.9 2.9v.2c0 1.6-1.3 2.9-2.9 2.9zM360.1 207.7H379v18.9h-18.9z"></path><circle cx="369.5" cy="211.1" r="1.4" fill="#bdd6ff"></circle><path fill="#bdd6ff" d="M363 216.5h12.9v1.6H363zM363 219.9h7.3v1.6H363z"></path><path fill="#fff" d="M276.5 272.2h18.9v18.9h-18.9z"></path><circle cx="285.9" cy="275.5" r="1.4" fill="#bdd6ff"></circle><path fill="#bdd6ff" d="M279.4 281h12.9v1.6h-12.9zM279.4 284.4h7.3v1.6h-7.3z"></path><path fill="#060405" d="M360.9 302.6h18.9v18.9h-18.9z"></path><circle cx="370.3" cy="305.9" r="1.4" fill="#fff"></circle><path fill="#fff" d="M363.8 311.3h12.9v1.6h-12.9zM363.8 314.7h7.3v1.6h-7.3z"></path><path fill="#6193f6" d="M236.1 176H255v18.9h-18.9z"></path><circle cx="245.6" cy="179.3" r="1.4" fill="#fff"></circle><path fill="#fff" d="M239.1 184.7H252v1.6h-12.9zM239.1 188.2h7.3v1.6h-7.3z"></path><path d="M252 254.2v28.4c0 1.9-1.5 3.4-3.4 3.4h-45.4v-35.1h45.4c1.9-.1 3.4 1.5 3.4 3.3z" opacity=".1"></path><path fill="#ff7545" d="M246.8 283.7h-53c-1.9 0-3.4-1.5-3.4-3.4v-28.4c0-1.9 1.5-3.4 3.4-3.4h53c1.9 0 3.4 1.5 3.4 3.4v28.4c0 1.9-1.5 3.4-3.4 3.4z"></path><circle cx="203.7" cy="267.2" r="8.7" fill="#fff"></circle><path fill="#060405" d="m201.3 270.9-1.9-1.9c-.3-.3-.3-.9 0-1.2.3-.3.9-.3 1.2 0l1.3 1.3 5.6-5.6c.3-.3.9-.3 1.2 0 .3.3.3.9 0 1.2l-6.2 6.2c-.4.3-.9.3-1.2 0z"></path><path fill="#fff" d="M242.5 265.4h-23c-.7 0-1.2-.6-1.2-1.2v-.4c0-.7.6-1.2 1.2-1.2h23c.7 0 1.2.6 1.2 1.2v.4c0 .6-.5 1.2-1.2 1.2zM229 271.5h-9.5c-.7 0-1.2-.6-1.2-1.2v-.4c0-.7.6-1.2 1.2-1.2h9.5c.7 0 1.2.6 1.2 1.2v.4c0 .7-.5 1.2-1.2 1.2z"></path><path d="M452.6 180.6v38.7h-41.8c-1.9 0-3.4-1.5-3.4-3.4v-32c0-1.9 1.5-3.4 3.4-3.4h41.8z" opacity=".1"></path><path fill="#f2cb2a" d="M473 216.5h-59.1c-1.9 0-3.4-1.5-3.4-3.4v-32c0-1.9 1.5-3.4 3.4-3.4H473c1.9 0 3.4 1.5 3.4 3.4v32c0 1.9-1.5 3.4-3.4 3.4z"></path><circle cx="425.2" cy="198.3" r="9.6" fill="#fff"></circle><path fill="#060405" d="m422.5 202.4-2.1-2.1c-.4-.4-.4-1 0-1.3.4-.4 1-.4 1.3 0l1.4 1.4 6.1-6.1c.4-.4 1-.4 1.3 0 .4.4.4 1 0 1.3l-6.8 6.8c-.2.3-.8.3-1.2 0z"></path><path fill="#fff" d="M468 196.3h-25.5c-.7 0-1.2-.6-1.2-1.2v-.7c0-.7.6-1.2 1.2-1.2H468c.7 0 1.2.6 1.2 1.2v.7c0 .7-.5 1.2-1.2 1.2zM453.2 203.1h-10.7c-.7 0-1.2-.6-1.2-1.2v-.7c0-.7.6-1.2 1.2-1.2h10.7c.7 0 1.2.6 1.2 1.2v.7c0 .7-.5 1.2-1.2 1.2zM415.5 283.3c-.2.2-.3.5-.3.8l.9 5.1c.1.7-.6 1.3-1.3.9l-4.6-2.4c-.3-.1-.6-.1-.8 0l-4.6 2.4c-.6.3-1.4-.2-1.3-.9l.9-5.1c.1-.3 0-.6-.3-.8l-3.7-3.6c-.5-.5-.2-1.4.5-1.5l5.1-.7c.3 0 .5-.2.7-.5l2.3-4.7c.3-.7 1.3-.7 1.6 0l2.3 4.7c.1.3.4.4.7.5l5.1.7c.7.1 1 1 .5 1.5l-3.7 3.6zM291.6 252.3c-.2.2-.3.5-.3.8l.9 5.1c.1.7-.6 1.3-1.3.9l-4.6-2.4c-.3-.1-.6-.1-.8 0l-4.6 2.4c-.6.3-1.4-.2-1.3-.9l.9-5.1c.1-.3 0-.6-.3-.8l-3.7-3.6c-.5-.5-.2-1.4.5-1.5l5.1-.7c.3 0 .5-.2.7-.5l2.3-4.7c.3-.7 1.3-.7 1.6 0l2.3 4.7c.1.3.4.4.7.5l5.1.7c.7.1 1 1 .5 1.5l-3.7 3.6zM251.2 315.2c-.2.2-.3.5-.3.8l.9 5.1c.1.7-.6 1.3-1.3.9l-4.6-2.4c-.3-.1-.6-.1-.8 0l-4.6 2.4c-.6.3-1.4-.2-1.3-.9l.9-5.1c.1-.3 0-.6-.3-.8l-3.7-3.6c-.5-.5-.2-1.4.5-1.5l5.1-.7c.3 0 .5-.2.7-.5l2.3-4.7c.3-.7 1.3-.7 1.6 0l2.3 4.7c.1.3.4.4.7.5l5.1.7c.7.1 1 1 .5 1.5l-3.7 3.6z"></path><g opacity=".1"><path fill="#060405" d="M451.4 319.1h-15.1c-.7-4.9-4.3-8.6-8.6-8.6s-7.9 3.7-8.6 8.6h-12.7c-3.4 0-6.1 2.7-6.1 6.1v61.2h39.9c6 0 11-4.1 12.1-9.5.1-.8.2-1.5.2-2.3v-59.1c-.5 1.1-.9 2.3-1.1 3.6zm-30.3 0c.6-3.8 3.4-6.6 6.6-6.6 3.3 0 6 2.8 6.6 6.6h-13.2z"></path></g><path fill="#060405" d="M441.7 328.1c-.6 0-1-.4-1-1 0-4.6-3-8.3-6.8-8.3-.6 0-1-.4-1-1s.4-1 1-1c4.8 0 8.8 4.6 8.8 10.3 0 .6-.4 1-1 1zM474.1 328.1c-.6 0-1-.4-1-1 0-4.6-3-8.3-6.8-8.3-.6 0-1-.4-1-1s.4-1 1-1c4.8 0 8.8 4.6 8.8 10.3 0 .6-.5 1-1 1zM506.4 328.1c-.6 0-1-.4-1-1 0-4.6-3-8.3-6.8-8.3-.6 0-1-.4-1-1s.4-1 1-1c4.8 0 8.8 4.6 8.8 10.3 0 .6-.4 1-1 1zM538.8 328.1c-.6 0-1-.4-1-1 0-4.6-3-8.3-6.8-8.3-.6 0-1-.4-1-1s.4-1 1-1c4.8 0 8.8 4.6 8.8 10.3 0 .6-.5 1-1 1z"></path><path fill="#6193f6" d="M555.2 331.5v102.2c0 3.4-2.7 6.1-6.1 6.1H412.7c-3.4 0-6.1-2.7-6.1-6.1V331.5c0-3.4 2.7-6.1 6.1-6.1h136.5c3.3 0 6 2.7 6 6.1z"></path><path fill="#fff" d="M551.6 345.4v-14c0-1.4-1.1-2.5-2.5-2.5H412.7c-1.4 0-2.5 1.1-2.5 2.5v14h141.4z"></path><circle cx="434" cy="336.4" r="3.8" fill="#bdd6ff"></circle><circle cx="465.8" cy="336.4" r="3.8" fill="#bdd6ff"></circle><circle cx="497.7" cy="336.4" r="3.8" fill="#bdd6ff"></circle><circle cx="529.6" cy="336.4" r="3.8" fill="#bdd6ff"></circle><path fill="#060405" d="M434 337.4c-4.8 0-8.8-4.6-8.8-10.3s3.9-10.3 8.8-10.3c.6 0 1 .4 1 1s-.4 1-1 1c-3.7 0-6.8 3.7-6.8 8.3s3 8.3 6.8 8.3c.6 0 1 .4 1 1s-.5 1-1 1zM466.3 337.4c-4.8 0-8.8-4.6-8.8-10.3s3.9-10.3 8.8-10.3c.6 0 1 .4 1 1s-.4 1-1 1c-3.7 0-6.8 3.7-6.8 8.3s3 8.3 6.8 8.3c.6 0 1 .4 1 1s-.4 1-1 1zM498.7 337.4c-4.8 0-8.8-4.6-8.8-10.3s3.9-10.3 8.8-10.3c.6 0 1 .4 1 1s-.4 1-1 1c-3.7 0-6.8 3.7-6.8 8.3s3 8.3 6.8 8.3c.6 0 1 .4 1 1s-.5 1-1 1zM531 337.4c-4.8 0-8.8-4.6-8.8-10.3s3.9-10.3 8.8-10.3c.6 0 1 .4 1 1s-.4 1-1 1c-3.7 0-6.8 3.7-6.8 8.3s3 8.3 6.8 8.3c.6 0 1 .4 1 1s-.4 1-1 1z"></path><path fill="#fff" d="M445.8 358.8h18.1v18.1h-18.1zM471.8 358.8h18.1v18.1h-18.1zM497.9 358.8H516v18.1h-18.1zM523.9 358.8H542v18.1h-18.1zM419.8 383.5h18.1v18.1h-18.1zM445.8 383.5h18.1v18.1h-18.1zM471.8 383.5h18.1v18.1h-18.1zM497.9 383.5H516v18.1h-18.1zM523.9 383.5H542v18.1h-18.1zM419.8 408.2h18.1v18.1h-18.1zM445.8 408.2h18.1v18.1h-18.1zM471.8 408.2h18.1v18.1h-18.1z"></path><path fill="#060405" d="m477.8 397.5-2.8-2.8c-.5-.5-.5-1.3 0-1.8s1.3-.5 1.8 0l1.9 1.9 7.1-7.1c.5-.5 1.3-.5 1.8 0s.5 1.3 0 1.8l-8 8c-.5.5-1.3.5-1.8 0z"></path><path fill="#6193f6" d="M150.5 423.4V420h-20c-.3 6.5-.8 18.7-.9 18.7h32.6c1-10.6-11.7-15.3-11.7-15.3z"></path><path fill="#060405" d="M161.6 434.1c.4 1.4.6 2.9.4 4.7h-32.6c.1 0 .2-1.9.3-4.7h31.9z"></path><path fill="#6193f6" d="M78 423.4V420H58c-.3 6.5-.8 18.7-.9 18.7h32.6c1-10.6-11.7-15.3-11.7-15.3z"></path><path fill="#060405" d="M89.1 434.1c.4 1.4.6 2.9.4 4.7H57c.1 0 .2-1.9.3-4.7h31.8zM152.6 422.3l-11-159.1-39.1 7.6 26.7 151.5c0 1.6 23.4 1.6 23.4 0z"></path><path fill="#060405" d="m80.5 423.5 40.9-158.1-40.9 1.9L57 423.5c0 1.6 23.5 1.6 23.5 0z"></path><path fill="#b580d8" d="M75.3 194c4.4-7.4 45.6-11.9 56.7-2.9 8.4 6.8 12.1 89.6 12.1 89.6.6 8.2-70.8 8.8-71.4.6 0 0-2-79.6 2.6-87.3z"></path><path fill="#fff" d="M96.5 280.2c.4.1 6 1.9 7.9-1.5 1.9-3.6-10-1-10-1"></path><path fill="#060405" d="M100.2 281.3c-1.7 0-3.3-.5-3.8-.6-.3-.1-.4-.4-.3-.6.1-.3.4-.4.6-.3.9.3 5.7 1.7 7.3-1.2.2-.4.1-.6.1-.6-.8-1-6.1-.4-9.6.4-.3.1-.5-.1-.6-.4-.1-.3.1-.5.4-.6 1.5-.3 9.2-1.9 10.6 0 .2.3.4.9 0 1.7-1 1.7-3 2.2-4.7 2.2z"></path><path fill="#6193f6" d="M98.1 252.3h19.8v66.9H98.1z" transform="rotate(-127.148 107.947 285.77)"></path><path fill="#d2e4ff" d="m128.6 257.7 12 15.8 4.7-11.8 2.4-6.1-6.4.7z"></path><path fill="#060405" d="m141.3 256.3 4 5.4 2.4-6.1z"></path><path fill="#060405" d="M69.7 305.2h19.8v4.2H69.7z" transform="rotate(-127.148 79.622 307.23)"></path><path fill="#f2cb2a" d="m66.3 312 5.1 6.7c1.9 2.5 5.5 3 8 1.1l4.5-3.4L72 300.6l-4.5 3.4c-2.6 2-3.1 5.5-1.2 8z"></path><path d="M78.7 288.4h66.9v5.8H78.7z" opacity=".05" transform="rotate(-37.148 112.156 291.328)"></path><g opacity=".1"><path fill="#fff" d="M70.3 277.3h66.9v5.8H70.3z" transform="rotate(-37.148 103.738 280.217)"></path></g><path fill="#fff" d="m94 277.2-25.2-35.4 9.4-9.8-16.7-17.9S43.4 233 44.2 240.9c1.5 14.8 41.4 42.9 41.4 42.9s4.2 19.2 16.5 13.4c12-5.7-4.8-16.5-5.6-17"></path><path fill="#060405" d="M97.7 298.8c-1.3 0-2.5-.3-3.7-.9-6-2.9-8.4-12.3-8.8-13.8-3.1-2.2-40.1-28.6-41.5-43.1-.8-8.1 16.7-26.4 17.4-27.2.1-.1.2-.2.4-.2.1 0 .3.1.4.2l16.7 17.9c.2.2.2.5 0 .7l-9.1 9.5 24.9 35c.2.2.1.5-.1.7-.2.2-.5.1-.7-.1l-25.2-35.4c-.1-.2-.1-.5 0-.6l9-9.5-16-17.2c-2.5 2.7-17.5 19-16.8 26 1.4 14.4 40.8 42.2 41.2 42.5.1.1.2.2.2.3 0 .1 2.3 10.4 8.3 13.4 2.2 1.1 4.8 1 7.5-.3 2.5-1.2 3.9-2.7 4-4.5.3-4.2-6.2-9.4-9.7-11.6-.2-.1-.3-.5-.2-.7.1-.2.5-.3.7-.2 1.1.7 10.5 6.8 10.1 12.5-.1 2.2-1.7 4-4.6 5.4-1.3.8-2.9 1.2-4.4 1.2z"></path><path fill="#b580d8" d="M81 190.3s-10.3 4-16.1 9.9c-4.6 4.6-13.8 20.4-13.8 20.4-1.8 1.7 23.9 19.3 26.5 16.6 0 0 10.7-13.6 12-22.2 1.6-10.9-8.6-24.7-8.6-24.7z"></path><path fill="#060405" d="M76.6 237.9c-.3 0-.5 0-.9-.1-5.7-.9-22.4-10.8-25-16.3-.1-.3 0-.5.2-.7.3-.1.5 0 .7.2 2.4 5.2 18.8 14.8 24.3 15.7 1 .2 1.3 0 1.3-.1.1-.1 10.6-13.6 11.8-21.9 0-.3.3-.5.6-.4.3 0 .5.3.4.6-1.3 8.6-11.6 21.8-12.1 22.4-.2.5-.7.6-1.3.6z"></path><path fill="#fff" d="M202.8 208.6s-19.9 34.6-31.9 36.5c-8.5 1.3-29.5-17.8-29.5-17.8l13.3-19.6 16 11.1 24.1-18.3c-.1-.3-1.9-8.5.4-8.4 2.3.1 2.7 4.7 2.7 4.7s7.3-13.1 10.1-11.8c2.8 1.3-3.1 10.6-3.1 10.6s5.5 3.4 6.1 7.3c.6 3.8-8.2 5.7-8.2 5.7z"></path><path fill="#060405" d="M170.1 245.6c-9.1 0-28.1-17.2-28.9-18-.2-.2-.2-.4-.1-.7l13.3-19.6c.1-.1.2-.2.3-.2.1 0 .3 0 .4.1l15.7 10.9 23.5-17.9c-.3-1.4-1.3-6.8-.1-8.3.3-.3.6-.5 1.1-.5 1.8.1 2.6 2.2 2.9 3.7 2.3-4 7.4-12 10-10.8.5.2.8.6.9 1.1.7 2.5-2.6 8.1-3.6 9.8 1.3.9 5.4 3.9 5.9 7.4.7 4-6.9 6-8.3 6.3-1.8 3.1-20.4 34.7-32.1 36.6-.3.1-.6.1-.9.1zm-28-18.4c2.7 2.4 21.2 18.6 28.7 17.4 11.6-1.8 31.3-35.9 31.5-36.3.1-.1.2-.2.3-.2 2.3-.5 8.2-2.4 7.8-5.2-.6-3.6-5.8-6.9-5.9-7-.1-.1-.2-.2-.2-.3s0-.3.1-.4c1.2-1.9 4.3-7.4 3.7-9.4-.1-.2-.2-.4-.4-.5-1.5-.7-6 5.5-9.4 11.6-.2.4-.9.3-.9-.2-.1-1.1-.7-4.1-2.2-4.2-.1 0-.1 0-.2.1-.9 1.1 0 6.3.4 7.7v.1c0 .2-.1.3-.2.4l-24.1 18.3c-.2.1-.4.1-.6 0l-15.6-10.8-12.8 18.9z"></path><path fill="#b580d8" d="M124.2 187.7s9.3 2.6 18.2 7.8c7.4 4.3 19.2 15 19.2 15 .1 4.7-14 24.7-15.7 23.8l-18.8-13-2.9-33.6z"></path><path fill="#060405" d="M140.5 231.4c-.3 0-.5-.2-.5-.4l-1.8-15.8c0-.3.2-.5.4-.6.3 0 .5.2.6.4l1.8 15.8c0 .4-.2.6-.5.6z"></path><path fill="#fff" d="M110.7 175.2s-.1 7.5 4.5 11.1c1.6 3.5-2.8 17.1-22.8 1.7 0 0 1.5-22.2 3.5-26.2s14.8 13.4 14.8 13.4z"></path><path fill="#060405" d="M107.9 195.7c-3.5 0-8.6-1.7-15.9-7.3l-.2-.2v-.3c.1-.9 1.5-22.3 3.5-26.4.3-.5.7-.8 1.2-.9h.1c3.6 0 12.4 11.5 14.5 14.3 0 3.7 1.3 8.5 4.3 10.9l.1.1v.1c.8 1.8.2 5.7-2.6 8-1 .9-2.6 1.7-5 1.7zm-15.1-7.9c11.7 9 17.3 7.3 19.5 5.5 2.5-2 2.9-5.3 2.4-6.7-4.3-3.5-4.5-10.1-4.5-11.3-4.1-5.4-11.3-13.8-13.5-13.6-.1 0-.3.1-.4.3-1.9 3.7-3.3 23.2-3.5 25.8z"></path><path fill="#fff" d="M94.2 166.1c2.4 5.6 13.4 14.7 22 10.2 11.2-5.9 14.9-38.3.5-44.6-9.3-4.1-27.1 23.7-22.5 34.4z"></path><path fill="#060405" d="M111.2 178c-1.6 0-3.3-.3-5-.9-5.8-2.1-10.8-7.1-12.4-10.8-3.2-7.4 3.8-22.5 11.9-30.6 4.3-4.2 8.2-5.8 11.2-4.5 5.8 2.6 9.4 9.6 9.7 19.2.3 10-3.1 22.6-10.2 26.3-1.6.9-3.4 1.3-5.2 1.3zm3.5-46.3c-2.3 0-5.2 1.6-8.3 4.7-7.7 7.7-14.7 22.5-11.7 29.5 1.5 3.4 6.4 8.3 11.8 10.2 3.5 1.2 6.8 1.1 9.5-.3 5.8-3 10-14.2 9.6-25.4-.3-9.3-3.6-16-9.1-18.3-.6-.2-1.2-.4-1.8-.4z"></path><path fill="#060405" d="M92.7 139.2s-7.2-7.7-15.2-7.3-8.6 8.3-8.6 8.3-7.6-5.6-12.7 1.1 4 14 4 14-6.4 3.8-4.6 12.3c1.8 8.4 13.6 10.8 13.8-1.3 0 0 6.6 3.4 10.3-6.7 0 0 7.6 4.2 13.7-2.7 6.2-7.1-.7-17.7-.7-17.7z"></path><path fill="#060405" d="M94.8 167.3s.9-14.9 9.5-17.8 10.9-8.5 10.9-12.5c-.4 1.8 10 7.1 10.8 16.3 0 0 5.7-9.5-1.8-20.6-5.2-7.6-12.3-7.1-12.3-7.1s-9.3-9.2-21.3 5c-10 11.9 1.2 33.8 4.2 36.7z"></path><ellipse cx="108.3" cy="156.2" fill="#060405" rx="1.5" ry="1.9" transform="rotate(-7.068 108.229 156.179)"></ellipse><ellipse cx="119" cy="154.5" fill="#060405" rx="1.5" ry="1.9" transform="rotate(-7.068 118.942 154.476)"></ellipse><path fill="#060405" d="m114.3 164.3-.7-.8c.5-.4.9-.8 1.2-1.3.2-.4.3-1 0-1.3-.2-.2-.7-.5-1.1-.8-.5-.5-.6-1.3-.7-1.8l-.5-3.9 1-.1.5 3.9c.1.5.2 1 .4 1.3.3.3.7.4 1.1.9.6.7.5 1.7.2 2.4-.4.6-.9 1.1-1.4 1.5zM109.4 170.2l.7-.7c.8.9 2.3 1.2 3.4.7l.4.9c-1.4.8-3.3.4-4.5-.9z"></path><path fill="#ff7545" d="M90.2 160.3c-.2 0-.3-.1-.4-.2-5-7.7-5.9-17.5-2.3-25.8.1-.3.4-.4.7-.3.3.1.4.4.3.7-3.5 8-2.6 17.5 2.3 24.9.2.2.1.5-.1.7h-.5z"></path><path fill="#c6e2fa" d="M488.7 78.4h-39.8c-.2 0-.4-.2-.4-.4s.2-.4.4-.4h39.8c.2 0 .4.2.4.4s-.2.4-.4.4zM488.7 98.1h-39.8c-.2 0-.4-.2-.4-.4s.2-.4.4-.4h39.8c.2 0 .4.2.4.4s-.2.4-.4.4zM481.5 88.2h-56.3c-.2 0-.4-.2-.4-.4s.2-.4.4-.4h56.3c.2 0 .4.2.4.4s-.2.4-.4.4z"></path><path fill="#c6e2fa" d="M457.1 78.4c-.2 0-.4-.2-.4-.4v-8.4c0-.2.2-.4.4-.4s.4.2.4.4V78c0 .2-.2.4-.4.4zM471.1 88.2c-.2 0-.4-.2-.4-.4V78c0-.2.2-.4.4-.4s.4.2.4.4v9.9c0 .1-.2.3-.4.3zM460.5 97.7c-.2 0-.4-.2-.4-.4v-9.5c0-.2.2-.4.4-.4s.4.2.4.4v9.5c-.1.3-.2.4-.4.4z"></path><path fill="#bdd6ff" d="m507.1 132.8 24.3-51.1-34.5 15.5 4.3 9.5 14.9-9.9-12.6 18.7z"></path><path fill="#060405" d="m501.2 106.7 7 1.8 7.9-11.7z"></path><path fill="#c6e2fa" d="M303 401.3h-39.8c-.2 0-.4-.2-.4-.4s.2-.4.4-.4H303c.2 0 .4.2.4.4s-.1.4-.4.4zM303 421h-39.8c-.2 0-.4-.2-.4-.4s.2-.4.4-.4H303c.2 0 .4.2.4.4s-.1.4-.4.4zM295.8 411.2h-56.3c-.2 0-.4-.2-.4-.4s.2-.4.4-.4h56.3c.2 0 .4.2.4.4s-.2.4-.4.4z"></path><path fill="#c6e2fa" d="M271.5 401.3c-.2 0-.4-.2-.4-.4v-8.4c0-.2.2-.4.4-.4s.4.2.4.4v8.4c-.1.2-.2.4-.4.4zM285.4 411.2c-.2 0-.4-.2-.4-.4v-9.9c0-.2.2-.4.4-.4s.4.2.4.4v9.9c0 .2-.2.4-.4.4zM274.8 420.7c-.2 0-.4-.2-.4-.4v-9.5c0-.2.2-.4.4-.4s.4.2.4.4v9.5c0 .2-.2.4-.4.4zM526.5 254.6h-39.8c-.2 0-.4-.2-.4-.4s.2-.4.4-.4h39.8c.2 0 .4.2.4.4s-.2.4-.4.4zM526.5 274.3h-39.8c-.2 0-.4-.2-.4-.4s.2-.4.4-.4h39.8c.2 0 .4.2.4.4s-.2.4-.4.4zM519.3 264.4H463c-.2 0-.4-.2-.4-.4s.2-.4.4-.4h56.3c.2 0 .4.2.4.4s-.2.4-.4.4z"></path><path fill="#c6e2fa" d="M494.9 254.6c-.2 0-.4-.2-.4-.4v-8.4c0-.2.2-.4.4-.4s.4.2.4.4v8.4c0 .2-.2.4-.4.4zM508.9 264.4c-.2 0-.4-.2-.4-.4v-9.9c0-.2.2-.4.4-.4s.4.2.4.4v9.9c0 .2-.2.4-.4.4zM498.3 273.9c-.2 0-.4-.2-.4-.4V264c0-.2.2-.4.4-.4s.4.2.4.4v9.5c0 .3-.2.4-.4.4z"></path></g></svg>