<?xml version="1.0" standalone="no"?>
<!DOCTYPE svg PUBLIC "-//W3C//DTD SVG 20010904//EN"
 "http://www.w3.org/TR/2001/REC-SVG-20010904/DTD/svg10.dtd">
<svg version="1.0" xmlns="http://www.w3.org/2000/svg"
 width="166.000000pt" height="185.000000pt" viewBox="0 0 166.000000 185.000000"
 preserveAspectRatio="xMidYMid meet">

<g transform="translate(0.000000,185.000000) scale(0.100000,-0.100000)"
fill="#000000" stroke="none">
<path d="M135 1696 c-39 -17 -63 -45 -75 -86 -8 -27 -5 -42 12 -79 23 -49 24
-56 13 -85 -7 -17 -6 -17 21 -3 21 11 47 14 95 10 54 -5 72 -2 107 16 48 25
82 72 82 115 0 38 -43 94 -86 112 -42 18 -129 17 -169 0z m173 -78 c-3 -9 -30
-13 -88 -13 -58 0 -85 4 -87 13 -4 9 18 12 87 12 69 0 91 -3 88 -12z m-45 -63
c-2 -5 -32 -11 -68 -13 -60 -3 -76 3 -58 22 11 11 128 2 126 -9z"/>
<path d="M1264 1701 c-11 -5 -34 -25 -52 -45 -40 -46 -42 -89 -7 -140 19 -29
23 -41 15 -56 -15 -27 -12 -34 7 -19 11 10 44 14 103 14 77 0 91 3 128 27 73
49 76 141 5 195 -30 23 -47 28 -107 30 -39 2 -80 -1 -92 -6z m174 -83 c-3 -9
-33 -14 -91 -16 -73 -2 -87 0 -87 13 0 12 16 15 91 15 68 0 90 -3 87 -12z
m-50 -65 c3 -10 -14 -13 -62 -13 -53 0 -66 3 -66 15 0 13 11 15 62 13 38 -2
63 -8 66 -15z"/>
<path d="M408 1586 c4 -50 1 -57 -33 -95 -21 -23 -48 -44 -61 -47 -13 -3 -24
-10 -24 -14 0 -12 73 -20 105 -11 20 5 39 4 58 -6 28 -14 34 -9 18 16 -7 10
-3 23 10 39 23 30 25 89 3 120 -12 18 -62 52 -76 52 -2 0 -1 -24 0 -54z"/>
<path d="M1534 1585 c1 -63 -21 -99 -77 -130 -20 -11 -37 -23 -37 -27 0 -11
74 -19 105 -10 21 6 38 5 57 -5 27 -13 28 -13 17 11 -10 21 -8 29 10 52 11 15
21 38 21 52 0 36 -36 89 -68 100 l-28 10 0 -53z"/>
<path d="M715 1318 c-103 -37 -147 -147 -85 -213 22 -24 25 -47 10 -76 -13
-24 -8 -24 31 0 24 15 38 17 56 10 69 -26 169 -2 218 53 66 72 40 168 -58 213
-56 27 -120 31 -172 13z m173 -100 c-6 -18 -190 -18 -195 0 -4 9 20 12 97 12
77 0 101 -3 98 -12z m-48 -73 c0 -13 -12 -15 -72 -13 -46 2 -73 7 -76 16 -3 9
16 12 72 12 62 0 76 -3 76 -15z"/>
<path d="M1003 1204 c15 -63 -20 -129 -86 -164 -26 -14 -47 -28 -47 -32 0 -12
69 -20 115 -14 31 5 53 3 75 -9 l31 -16 -14 27 c-13 25 -12 30 10 63 19 28 24
45 20 75 -6 43 -45 90 -87 104 l-27 10 10 -44z"/>
<path d="M119 797 c-49 -32 -71 -82 -58 -130 5 -20 17 -44 26 -52 13 -13 13
-21 4 -41 -16 -35 -14 -36 17 -20 19 10 47 13 93 9 105 -9 177 38 186 120 4
36 1 48 -22 75 -40 47 -75 62 -148 62 -50 0 -72 -5 -98 -23z m191 -72 c0 -13
-14 -15 -87 -13 -58 2 -88 7 -91 16 -3 9 19 12 87 12 75 0 91 -3 91 -15z m-47
-60 c-2 -5 -32 -11 -68 -13 -54 -2 -65 0 -65 13 0 13 11 15 68 13 38 -2 66 -7
65 -13z"/>
<path d="M1255 805 c-39 -20 -75 -73 -75 -112 0 -16 11 -47 25 -67 19 -29 23
-41 15 -56 -15 -27 -12 -34 7 -19 11 10 44 14 103 14 77 0 91 3 128 27 76 51
76 143 0 198 -36 26 -50 30 -107 30 -38 0 -79 -7 -96 -15z m183 -77 c-3 -9
-33 -14 -91 -16 -73 -2 -87 0 -87 13 0 12 16 15 91 15 68 0 90 -3 87 -12z
m-48 -63 c0 -12 -14 -15 -65 -15 -51 0 -65 3 -65 15 0 12 14 15 65 15 51 0 65
-3 65 -15z"/>
<path d="M408 696 c3 -49 1 -57 -29 -91 -19 -21 -47 -44 -64 -51 -26 -11 -27
-14 -12 -20 10 -3 45 -4 77 -1 42 3 64 1 79 -10 22 -15 27 -8 12 16 -7 10 -3
23 10 39 23 30 25 89 3 120 -12 18 -62 52 -76 52 -2 0 -1 -24 0 -54z"/>
<path d="M1536 716 c3 -19 1 -51 -6 -70 -12 -36 -73 -96 -98 -96 -7 0 -10 -5
-7 -11 4 -6 35 -9 73 -8 39 2 76 -2 89 -9 22 -12 22 -11 12 12 -10 21 -8 29
10 52 26 33 27 70 2 108 -18 27 -55 55 -74 56 -4 0 -5 -15 -1 -34z"/>
<path d="M711 428 c-48 -16 -99 -70 -107 -114 -6 -35 5 -69 38 -116 10 -13 10
-25 1 -48 -13 -35 -13 -36 28 -11 24 15 38 17 56 10 43 -16 116 -10 163 14
116 58 119 192 6 251 -47 23 -136 30 -185 14z m177 -100 c-6 -18 -190 -18
-195 0 -4 9 20 12 97 12 77 0 101 -3 98 -12z m-50 -70 c-3 -9 -27 -13 -73 -13
-46 0 -70 4 -72 13 -4 9 15 12 72 12 57 0 76 -3 73 -12z"/>
<path d="M1003 324 c20 -66 -28 -152 -103 -186 -16 -7 -30 -16 -30 -20 0 -12
62 -20 114 -14 36 4 59 2 79 -8 l27 -15 -14 27 c-12 24 -11 29 11 64 20 30 24
46 20 75 -7 41 -47 87 -87 102 l-28 9 11 -34z"/>
</g>
</svg>
