<svg xmlns="http://www.w3.org/2000/svg" version="1.1" xmlns:xlink="http://www.w3.org/1999/xlink" xmlns:svgjs="http://svgjs.dev/svgjs" viewBox="0 0 800 800"><defs><symbol id="bbburst-shape-1" viewBox="0 0 194 167"><path d="m97 0 96.129 166.5H.871L97 0Z"></path></symbol><symbol id="bbburst-shape-2" viewBox="0 0 126 115"><path d="m63 0 62.77 43.877-23.976 70.996H24.206L.23 43.877 63 0Z"></path></symbol><symbol id="bbburst-shape-4" viewBox="0 0 149 143"><path d="M71.647 2.781c.898-2.764 4.808-2.764 5.706 0l15.445 47.534a3 3 0 0 0 2.853 2.073h49.98c2.906 0 4.115 3.719 1.764 5.427L106.96 87.193a2.999 2.999 0 0 0-1.09 3.354l15.445 47.534c.898 2.764-2.266 5.062-4.617 3.354l-40.435-29.378a3 3 0 0 0-3.526 0l-40.435 29.378c-2.351 1.708-5.515-.59-4.617-3.354L43.13 90.547a3 3 0 0 0-1.09-3.354L1.605 57.815c-2.35-1.708-1.142-5.427 1.764-5.427h49.98a3 3 0 0 0 2.853-2.073L71.647 2.781Z"></path></symbol><symbol id="bbburst-shape-9" viewBox="0 0 182 172"><path d="M13.5809 69.845 91 13.5967l77.419 56.2483-29.571 91.012H43.1524L13.5809 69.845Z" stroke-width="22"></path></symbol><symbol id="bbburst-shape-10" viewBox="0 0 145 145"><circle cx="72.5" cy="72.5" r="61.5" fill="none" stroke-width="22"></circle></symbol><symbol id="bbburst-shape-11" viewBox="0 0 194 167"><path d="M10.398 161 97 11l86.603 150H10.397Z" stroke-width="11"></path></symbol><symbol id="bbburst-shape-13" viewBox="0 0 159 159"><path stroke-width="22" d="M11 11h137v137H11z"></path></symbol><symbol id="bbburst-shape-14" viewBox="0 0 185 109"><path d="M168 16.5C168 58.1975 134.197 92 92.5 92 50.8025 92 17 58.1975 17 16.5" stroke-width="33" stroke-linecap="round"></path></symbol></defs><use xlink:href="#bbburst-shape-4" width="13.977624133543186" opacity="0.9169827232178274" transform="matrix(0.9979658550593206,0.06375070302137219,-0.06375070302137219,0.9979658550593206,408.11738791100197,-35.49800655628394)" fill="#ff5d9f"></use><use xlink:href="#bbburst-shape-13" width="40.42642343960419" opacity="0.3608978856541597" transform="matrix(0.9888823810210652,-0.14869982012803112,0.14869982012803112,0.9888823810210652,492.9980826736206,-222.69229865236252)" fill="none" stroke="#ff8e6f"></use><use xlink:href="#bbburst-shape-10" width="23.8268557096711" opacity="0.7482772380762666" transform="matrix(0.796569481206084,-0.6045469887536207,0.6045469887536207,0.796569481206084,93.30541136989308,-10.236899954296462)" fill="none" stroke="#ff8e6f"></use><use xlink:href="#bbburst-shape-1" width="47.194671527771135" opacity="0.13078313312401957" transform="matrix(0.7245131806981144,-0.6892609455022832,0.6892609455022832,0.7245131806981144,457.8782249362372,-46.84565606059434)" fill="#e354d4"></use><use xlink:href="#bbburst-shape-4" width="17.08663727910287" opacity="0.7424389533087021" transform="matrix(0.8955934596521412,-0.44487341461173935,0.44487341461173935,0.8955934596521412,309.94695237916636,111.19232278149207)" fill="#ff8e6f"></use><use xlink:href="#bbburst-shape-4" width="38.242200992653665" opacity="0.2974658030211592" transform="matrix(0.9154379410775411,0.4024591607054216,-0.4024591607054216,0.9154379410775411,787.2717425101584,227.41529046770398)" fill="#ff5d9f"></use><use xlink:href="#bbburst-shape-14" width="18.699393686400747" opacity="0.7143882087960012" transform="matrix(0.9856021352323313,-0.16908113740293246,0.16908113740293246,0.9856021352323313,394.73451579510487,114.11404843100831)" fill="none" stroke="#ff8e6f"></use><use xlink:href="#bbburst-shape-9" width="23.89070921574896" opacity="0.6224276334825376" transform="matrix(0.7227237259253694,0.6911370457330092,-0.6911370457330092,0.7227237259253694,824.4052852632728,168.75746848337582)" fill="none" stroke="#ff5d9f"></use><use xlink:href="#bbburst-shape-2" width="19.93382649092498" opacity="0.6566571299387389" transform="matrix(0.9664235187105404,-0.25695443658971456,0.25695443658971456,0.9664235187105404,281.57090478836176,170.3883938519491)" fill="#e354d4"></use><use xlink:href="#bbburst-shape-9" width="30.29094478926441" opacity="0.1708708568623768" transform="matrix(0.8242581925810355,-0.5662141220095491,0.5662141220095491,0.8242581925810355,-206.2899107590167,12.596235914641284)" fill="none" stroke="#5c67f7"></use><use xlink:href="#bbburst-shape-11" width="28.924347452199655" opacity="0.5048638202293929" transform="matrix(0.927703210797491,-0.37331856728004564,0.37331856728004564,0.927703210797491,451.95893088458706,-25.085200968820345)" fill="none" stroke="#5c67f7"></use><use xlink:href="#bbburst-shape-13" width="35.775504591639624" opacity="0.45171778567073784" transform="matrix(0.9779769171198535,-0.20871307956318258,0.20871307956318258,0.9779769171198535,52.424673174076275,20.572714637791307)" fill="none" stroke="#5c67f7"></use><use xlink:href="#bbburst-shape-11" width="27.370743868659137" opacity="0.4479180030532601" transform="matrix(0.8854459089182054,0.46474244736199105,-0.46474244736199105,0.8854459089182054,526.6779110092386,283.04847781544674)" fill="none" stroke="#ff5d9f"></use><use xlink:href="#bbburst-shape-11" width="26.860668942576126" opacity="0.31279121067040483" transform="matrix(0.813371120227572,0.5817451510582144,-0.5817451510582144,0.813371120227572,722.1072220644187,-226.0271690909119)" fill="none" stroke="#ff5d9f"></use><use xlink:href="#bbburst-shape-11" width="14.515319016193612" opacity="0.890470677448191" transform="matrix(0.9715867227721557,-0.23668384003320173,0.23668384003320173,0.9715867227721557,250.8270073225417,-0.5972168954274935)" fill="none" stroke="#e354d4"></use><use xlink:href="#bbburst-shape-4" width="18.559387732064142" opacity="0.842597532756989" transform="matrix(0.7433579083335146,0.6688938780688775,-0.6688938780688775,0.7433579083335146,610.7547025105629,46.18604066669491)" fill="#ff8e6f"></use><use xlink:href="#bbburst-shape-14" width="13.955234789343438" opacity="0.8279586230128305" transform="matrix(0.9960307490244056,-0.08900981405374102,0.08900981405374102,0.9960307490244056,396.2256958900202,69.23443483882102)" fill="none" stroke="#ff5d9f"></use><use xlink:href="#bbburst-shape-14" width="25.218322420568423" opacity="0.1649146864623886" transform="matrix(0.7077432441084375,-0.7064697448715441,0.7064697448715441,0.7077432441084375,191.86017265225263,-240.59393725829398)" fill="none" stroke="#ff5d9f"></use><use xlink:href="#bbburst-shape-11" width="27.65043618624852" opacity="0.5803583064831597" transform="matrix(0.8433645497238024,-0.5373418244182824,0.5373418244182824,0.8433645497238024,46.96809991510369,210.2194431791762)" fill="none" stroke="#ff8e6f"></use><use xlink:href="#bbburst-shape-9" width="29.11411183129154" opacity="0.4580356500490953" transform="matrix(0.9498014807323435,0.31285323587690084,-0.31285323587690084,0.9498014807323435,315.8494395906844,161.1077606772934)" fill="none" stroke="#ff5d9f"></use><use xlink:href="#bbburst-shape-13" width="33.588032888238764" opacity="0.3315278109328542" transform="matrix(0.9877423177878003,0.15609328509319048,-0.15609328509319048,0.9877423177878003,242.90864400497418,224.32509421249955)" fill="none" stroke="#ff5d9f"></use><use xlink:href="#bbburst-shape-2" width="39.733901360629304" opacity="0.30955373871213576" transform="matrix(0.8707744463466888,0.49168268587536984,-0.49168268587536984,0.8707744463466888,868.9496473745422,154.5223579550197)" fill="#e354d4"></use><use xlink:href="#bbburst-shape-4" width="22.481898152301234" opacity="0.7478544152021926" transform="matrix(0.9985140346927142,-0.054495160534466416,0.054495160534466416,0.9985140346927142,270.9398424376388,-59.195735396362295)" fill="#ff5d9f"></use><use xlink:href="#bbburst-shape-1" width="25.87063607983464" opacity="0.6040336455159908" transform="matrix(0.9239558449978835,0.38249914574315974,-0.38249914574315974,0.9239558449978835,382.78060598103326,107.38667442496177)" fill="#ff5d9f"></use><use xlink:href="#bbburst-shape-11" width="36.36705786790203" opacity="-0.0852861958741391" transform="matrix(0.9940946928281701,0.10851608954835341,-0.10851608954835341,0.9940946928281701,770.9073026990798,345.06864538508233)" fill="none" stroke="#9e5cf7"></use><use xlink:href="#bbburst-shape-14" width="17.4491410858186" opacity="0.7697001988575168" transform="matrix(0.9084058774489656,0.41808941844559394,-0.41808941844559394,0.9084058774489656,466.6566603474782,79.45835656291302)" fill="none" stroke="#ff8e6f"></use><use xlink:href="#bbburst-shape-9" width="20.462711086362205" opacity="0.720745493997959" transform="matrix(0.9984276708958448,-0.056055204838610435,0.056055204838610435,0.9984276708958448,370.3002509703598,-124.56527753321222)" fill="none" stroke="#5c67f7"></use><use xlink:href="#bbburst-shape-13" width="14.241409438165423" opacity="0.9415569278766733" transform="matrix(0.9148777726819993,-0.4037309265493838,0.4037309265493838,0.9148777726819993,209.33452502141054,50.27470499386425)" fill="none" stroke="#ff5d9f"></use><use xlink:href="#bbburst-shape-11" width="25.498148796139226" opacity="0.6644563682580062" transform="matrix(0.7804958351070009,0.6251609803727559,-0.6251609803727559,0.7804958351070009,715.262586409229,-51.50845729770822)" fill="none" stroke="#9e5cf7"></use><use xlink:href="#bbburst-shape-13" width="40.86522311319256" opacity="0.19104430764187585" transform="matrix(0.8167664073573695,-0.5769684877118815,0.5769684877118815,0.8167664073573695,511.6331385653227,25.429475436362168)" fill="none" stroke="#ff8e6f"></use><use xlink:href="#bbburst-shape-9" width="22.8627102920503" opacity="0.5939264978572041" transform="matrix(0.9880487456703326,0.15414174054837437,-0.15414174054837437,0.9880487456703326,469.63301337223095,-178.85040721462184)" fill="none" stroke="#ff5d9f"></use><use xlink:href="#bbburst-shape-11" width="23.404896209581924" opacity="0.4364195650282018" transform="matrix(0.9631928676822576,0.26881127142668126,-0.26881127142668126,0.9631928676822576,538.7394149436284,-238.75421443734072)" fill="none" stroke="#ff5d9f"></use><use xlink:href="#bbburst-shape-13" width="35.107920704881515" opacity="0.30344006193077644" transform="matrix(0.743100470477501,0.6691798642936865,-0.6691798642936865,0.743100470477501,352.9281617590748,176.04005331407836)" fill="none" stroke="#ff5d9f"></use><use xlink:href="#bbburst-shape-11" width="41.9566464425512" opacity="0.08624852678464179" transform="matrix(0.999560846125576,-0.02963300343742465,0.02963300343742465,0.999560846125576,720.5602979728459,210.45945917379004)" fill="none" stroke="#e354d4"></use><use xlink:href="#bbburst-shape-1" width="28.40436299542616" opacity="0.173662236968672" transform="matrix(0.7525517214072868,-0.6585331476903266,0.6585331476903266,0.7525517214072868,-241.0173228393715,168.59846751377347)" fill="#ff5d9f"></use><use xlink:href="#bbburst-shape-14" width="12.493722068075815" opacity="0.8732008293899242" transform="matrix(0.9967885746866261,-0.08007832025089263,0.08007832025089263,0.9967885746866261,408.3063323220169,-31.178334412476147)" fill="none" stroke="#ff5d9f"></use><use xlink:href="#bbburst-shape-14" width="13.1740914597131" opacity="0.8648191167846381" transform="matrix(0.890840572611329,0.45431605099260963,-0.45431605099260963,0.890840572611329,601.032629799093,-14.687258365274545)" fill="none" stroke="#9e5cf7"></use><use xlink:href="#bbburst-shape-10" width="25.727873246781748" opacity="0.633839801653403" transform="matrix(0.9988531598591203,-0.0478786490980133,0.0478786490980133,0.9988531598591203,532.7673003170921,-0.09231607454034929)" fill="none" stroke="#ff8e6f"></use><use xlink:href="#bbburst-shape-2" width="42.48045116073668" opacity="0.12467594659196357" transform="matrix(0.9235934937984908,0.3833732622563775,-0.3833732622563775,0.9235934937984908,726.1304571145531,-321.266221845384)" fill="#ff8e6f"></use><use xlink:href="#bbburst-shape-9" width="31.553259134553727" opacity="0.5323173786062978" transform="matrix(0.8734706951500063,-0.48687672435038915,0.48687672435038915,0.8734706951500063,210.95083029629038,267.65108868136656)" fill="none" stroke="#ff8e6f"></use><use xlink:href="#bbburst-shape-11" width="37.079062769032454" opacity="-0.07932771230719227" transform="matrix(0.9280954474671055,-0.3723423698571428,0.3723423698571428,0.9280954474671055,-126.69486098445638,360.8484315216794)" fill="none" stroke="#ff5d9f"></use><use xlink:href="#bbburst-shape-10" width="23.58802023054954" opacity="0.6865231872890065" transform="matrix(0.9454997783751896,-0.3256227404412465,0.3256227404412465,0.9454997783751896,120.76836235878474,-4.388497002664792)" fill="none" stroke="#ff8e6f"></use><use xlink:href="#bbburst-shape-11" width="22.897982162084638" opacity="0.6403952131743551" transform="matrix(0.7601142084923841,0.6497894967202813,-0.6497894967202813,0.7601142084923841,546.170757651907,-34.64096656114111)" fill="none" stroke="#e354d4"></use><use xlink:href="#bbburst-shape-14" width="19.334764179269783" opacity="0.7309521873357987" transform="matrix(0.8651153600787762,0.5015729396167316,-0.5015729396167316,0.8651153600787762,618.0283100326067,167.4234810122477)" fill="none" stroke="#9e5cf7"></use><use xlink:href="#bbburst-shape-9" width="35.227848891992075" opacity="0.31593531208356507" transform="matrix(0.9465709789424465,-0.3224955531847511,0.3224955531847511,0.9465709789424465,18.524314820243774,-171.14000418724197)" fill="none" stroke="#e354d4"></use><use xlink:href="#bbburst-shape-1" width="14.18070845445941" opacity="0.9793207083722417" transform="matrix(0.7965332593882378,-0.6045947127525598,0.6045947127525598,0.7965332593882378,158.3588051952304,78.43767428181343)" fill="#9e5cf7"></use><use xlink:href="#bbburst-shape-14" width="30.265273730500557" opacity="0.4716116630672139" transform="matrix(0.9939346109047946,0.10997267499490293,-0.10997267499490293,0.9939346109047946,629.7952756881405,128.06408667646747)" fill="none" stroke="#ff8e6f"></use><use xlink:href="#bbburst-shape-11" width="30.881892277781176" opacity="0.26152579321407265" transform="matrix(0.9993269342750973,-0.03668348991488182,0.03668348991488182,0.9993269342750973,65.46178494593867,-132.8319186651471)" fill="none" stroke="#ff5d9f"></use><use xlink:href="#bbburst-shape-4" width="26.074281829265036" opacity="-0.006942372938927743" transform="matrix(0.9549931816176458,-0.2966277516750687,0.2966277516750687,0.9549931816176458,-3.8497370133859192,383.7295092015908)" fill="#e354d4"></use><use xlink:href="#bbburst-shape-14" width="19.836339369427144" opacity="0.7053644066612719" transform="matrix(0.8611803719687483,0.5082994854765922,-0.5082994854765922,0.8611803719687483,464.96834319037487,77.56353882450088)" fill="none" stroke="#ff8e6f"></use><use xlink:href="#bbburst-shape-9" width="33.01070383934493" opacity="0.4515921472789207" transform="matrix(0.9897988360671236,0.14247197661353364,-0.14247197661353364,0.9897988360671236,579.8482628396677,205.31074922952956)" fill="none" stroke="#5c67f7"></use><use xlink:href="#bbburst-shape-10" width="27.200729289442048" opacity="-0.04791778702702887" transform="matrix(0.9988437801818516,-0.048073930482423824,0.048073930482423824,0.9988437801818516,671.5751079910457,-359.04867634196376)" fill="none" stroke="#e354d4"></use><use xlink:href="#bbburst-shape-2" width="28.73889149792614" opacity="0.6357430174067299" transform="matrix(0.9448341942097277,-0.32754899702495577,0.32754899702495577,0.9448341942097277,212.19968918577607,-131.33143433402233)" fill="#ff5d9f"></use><use xlink:href="#bbburst-shape-11" width="30.14878552228929" opacity="0.5225253719002457" transform="matrix(0.8935627461759398,-0.4489383238781393,0.4489383238781393,0.8935627461759398,306.8643638667711,-141.13512577777956)" fill="none" stroke="#ff5d9f"></use><use xlink:href="#bbburst-shape-9" width="28.039050201372085" opacity="-0.03970822676328378" transform="matrix(0.9715519491320023,0.23682654018882102,-0.23682654018882102,0.9715519491320023,842.7625972621033,-289.0098181332709)" fill="none" stroke="#ff8e6f"></use><use xlink:href="#bbburst-shape-11" width="29.599018056835178" opacity="0.4636394586571668" transform="matrix(0.8707401351395276,-0.4917434463795092,0.4917434463795092,0.8707401351395276,27.617056655304197,-119.71327700360075)" fill="none" stroke="#e354d4"></use><use xlink:href="#bbburst-shape-14" width="32.161744978586476" opacity="0.09434072051009235" transform="matrix(0.9976144756427833,-0.06903157239969714,0.06903157239969714,0.9976144756427833,-1.9930476754996747,196.23666789729657)" fill="none" stroke="#ff8e6f"></use><use xlink:href="#bbburst-shape-1" width="14.67563021521602" opacity="0.8605933577338694" transform="matrix(0.8505153055607386,-0.5259502970879695,0.5259502970879695,0.8505153055607386,126.51844940349429,90.14904475057313)" fill="#9e5cf7"></use><use xlink:href="#bbburst-shape-1" width="22.398382512607377" opacity="0.5888644077943945" transform="matrix(0.8147697042983266,0.5797847263921475,-0.5797847263921475,0.8147697042983266,465.01958815329317,-29.037358486996993)" fill="#ff5d9f"></use><use xlink:href="#bbburst-shape-9" width="29.007648201066427" opacity="0.04473250394771111" transform="matrix(0.9802391586415029,0.19781605563199006,-0.19781605563199006,0.9802391586415029,227.07685926659076,-353.21492204418115)" fill="none" stroke="#9e5cf7"></use><use xlink:href="#bbburst-shape-10" width="29.446937873934612" opacity="0.475298752669606" transform="matrix(0.9998913069778345,-0.014743616590170757,0.014743616590170757,0.9998913069778345,612.2842128900552,39.07438538556215)" fill="none" stroke="#5c67f7"></use><use xlink:href="#bbburst-shape-10" width="14.283674873196603" opacity="0.8063138280027903" transform="matrix(0.718406577929643,0.695623453304602,-0.695623453304602,0.718406577929643,620.0998641496717,176.84781714819832)" fill="none" stroke="#ff5d9f"></use><use xlink:href="#bbburst-shape-13" width="31.251039355757573" opacity="0.2438950194936379" transform="matrix(0.7622872427875215,0.64723887358795,-0.64723887358795,0.7622872427875215,455.8855871122806,-196.54105707852307)" fill="none" stroke="#9e5cf7"></use><use xlink:href="#bbburst-shape-2" width="25.998798371260797" opacity="0.29124261451444133" transform="matrix(0.7777911314692149,-0.6285228363455369,0.6285228363455369,0.7777911314692149,-6.648471435491132,381.0686881899449)" fill="#9e5cf7"></use><use xlink:href="#bbburst-shape-13" width="18.04494917163266" opacity="0.8266982200391768" transform="matrix(0.9767114842498134,-0.2145569307538833,0.2145569307538833,0.9767114842498134,305.9965768238283,89.23447815783175)" fill="none" stroke="#9e5cf7"></use><use xlink:href="#bbburst-shape-10" width="16.684161924723554" opacity="0.6757092442506465" transform="matrix(0.7305758189349844,-0.682831584497581,0.682831584497581,0.7305758189349844,53.90557986061583,243.17552498995707)" fill="none" stroke="#ff5d9f"></use><use xlink:href="#bbburst-shape-10" width="19.15498612990845" opacity="0.7868563451953419" transform="matrix(0.8939741355381061,-0.44811856130816086,0.44811856130816086,0.8939741355381061,304.30669006830146,19.97705159318963)" fill="none" stroke="#ff8e6f"></use><use xlink:href="#bbburst-shape-9" width="34.99769893626842" opacity="0.23466084797039444" transform="matrix(0.9694532683463136,0.2452760903403561,-0.2452760903403561,0.9694532683463136,466.72862628545136,-336.4003459297039)" fill="none" stroke="#e354d4"></use><use xlink:href="#bbburst-shape-13" width="31.40021878020808" opacity="0.27704147031590176" transform="matrix(0.8390649236167065,0.5440312986916198,-0.5440312986916198,0.8390649236167065,327.8144383722224,227.06138391263278)" fill="none" stroke="#e354d4"></use><use xlink:href="#bbburst-shape-13" width="15.58813731616939" opacity="0.9254422775556689" transform="matrix(0.9661991684330746,0.2577967550595527,-0.2577967550595527,0.9661991684330746,511.00781804529163,41.30870465348005)" fill="none" stroke="#ff8e6f"></use><use xlink:href="#bbburst-shape-2" width="15.959418234125517" opacity="0.8010608841732363" transform="matrix(0.8305022984889218,-0.5570151992581692,0.5570151992581692,0.8305022984889218,81.25462160199251,66.18114311959243)" fill="#ff5d9f"></use><use xlink:href="#bbburst-shape-11" width="28.38857264318724" opacity="0.45924504716122383" transform="matrix(0.8812448266572224,-0.4726600845109327,0.4726600845109327,0.8812448266572224,-30.804854202673027,136.02330272620338)" fill="none" stroke="#e354d4"></use><use xlink:href="#bbburst-shape-13" width="29.564551686748025" opacity="0.350693477639619" transform="matrix(0.989916290818289,0.14165358157336005,-0.14165358157336005,0.989916290818289,733.5125809338923,-18.324754623618617)" fill="none" stroke="#ff5d9f"></use><use xlink:href="#bbburst-shape-13" width="42.81557083085545" opacity="0.12237887048549156" transform="matrix(0.848965490329246,0.5284482909708603,-0.5284482909708603,0.848965490329246,861.3679513292295,339.0282207276449)" fill="none" stroke="#5c67f7"></use><use xlink:href="#bbburst-shape-4" width="32.794684844488295" opacity="0.07537156860714356" transform="matrix(0.8185332028144225,0.5744592203893706,-0.5744592203893706,0.8185332028144225,820.7738530470668,425.59128478834896)" fill="#5c67f7"></use><use xlink:href="#bbburst-shape-10" width="29.741628271383675" opacity="0.1829532765158267" transform="matrix(0.9314010521517482,0.363994615414317,-0.363994615414317,0.9314010521517482,892.5914895895206,92.5487320095313)" fill="none" stroke="#ff5d9f"></use><use xlink:href="#bbburst-shape-9" width="27.60264197836676" opacity="0.38246766093648976" transform="matrix(0.8644798709580013,0.5026674374856974,-0.5026674374856974,0.8644798709580013,642.7530156428722,319.7960874211645)" fill="none" stroke="#9e5cf7"></use><use xlink:href="#bbburst-shape-10" width="32.223517554803564" opacity="0.44689104920586975" transform="matrix(0.9275413460585343,0.37372055248798164,-0.37372055248798164,0.9275413460585343,502.7012533095275,-223.891575154866)" fill="none" stroke="#9e5cf7"></use><use xlink:href="#bbburst-shape-4" width="18.040053726206192" opacity="0.703050995875371" transform="matrix(0.9938310176167806,0.11090495220139769,-0.11090495220139769,0.9938310176167806,336.23284933665354,91.054200128574)" fill="#e354d4"></use><use xlink:href="#bbburst-shape-2" width="36.375134486475986" opacity="0.07747876479874805" transform="matrix(0.7306921599871917,-0.6827070875077043,0.6827070875077043,0.7306921599871917,-250.7686360891233,-78.7006835695432)" fill="#ff8e6f"></use><use xlink:href="#bbburst-shape-14" width="39.37606203499693" opacity="0.16186002202741845" transform="matrix(0.7882141056771956,0.6154011079056477,-0.6154011079056477,0.7882141056771956,514.0692376545323,-286.0662169695772)" fill="none" stroke="#e354d4"></use><use xlink:href="#bbburst-shape-11" width="24.85604684103805" opacity="0.5963603741286556" transform="matrix(0.9113254011031947,0.41168679029585264,-0.41168679029585264,0.9113254011031947,680.506453832153,159.89500474160667)" fill="none" stroke="#ff5d9f"></use><use xlink:href="#bbburst-shape-9" width="20.799715178566757" opacity="0.7800409472530713" transform="matrix(0.7700080227616088,-0.6380342035367365,0.6380342035367365,0.7700080227616088,172.37253090367187,6.1986086556023)" fill="none" stroke="#9e5cf7"></use><use xlink:href="#bbburst-shape-4" width="29.02918690165132" opacity="0.5460576060095277" transform="matrix(0.999882842347528,-0.015306912785682882,0.015306912785682882,0.999882842347528,179.72132848621928,-42.95301977111734)" fill="#9e5cf7"></use><use xlink:href="#bbburst-shape-9" width="15.858192821703195" opacity="0.8490152181120445" transform="matrix(0.8178893995465152,-0.5753754688109678,0.5753754688109678,0.8178893995465152,223.24829106383226,109.30112455562698)" fill="none" stroke="#5c67f7"></use><use xlink:href="#bbburst-shape-13" width="23.60311574089756" opacity="0.3036081123523381" transform="matrix(0.9923850747237571,0.12317411848892192,-0.12317411848892192,0.9923850747237571,384.34264846824834,310.41730160246254)" fill="none" stroke="#ff5d9f"></use><use xlink:href="#bbburst-shape-14" width="41.411150399362114" opacity="0.18811261439774107" transform="matrix(0.83297938956642,0.5533040182011643,-0.5533040182011643,0.83297938956642,687.9977472477542,410.9708303807452)" fill="none" stroke="#ff5d9f"></use><use xlink:href="#bbburst-shape-9" width="31.113677125135716" opacity="0.5304557615630923" transform="matrix(0.793100785426119,0.6090904236289331,-0.6090904236289331,0.793100785426119,793.7377640447017,-62.1609808586191)" fill="none" stroke="#5c67f7"></use><use xlink:href="#bbburst-shape-10" width="43.30139663902362" opacity="0.1947610046979028" transform="matrix(0.8494795148331694,-0.527621601035063,0.527621601035063,0.8494795148331694,435.20203339654154,-175.8908336890196)" fill="none" stroke="#ff5d9f"></use><use xlink:href="#bbburst-shape-2" width="19.462135184782973" opacity="0.7582246670848889" transform="matrix(0.9898485388562235,-0.14212624713331268,0.14212624713331268,0.9898485388562235,304.62017489096286,110.34411893916172)" fill="#ff8e6f"></use><use xlink:href="#bbburst-shape-9" width="22.85134446914949" opacity="0.5919960414722041" transform="matrix(0.9906095280055371,0.13672147974860058,-0.13672147974860058,0.9906095280055371,261.1175623275288,24.084539479388752)" fill="none" stroke="#ff5d9f"></use><use xlink:href="#bbburst-shape-2" width="11.962119062346128" opacity="0.8861746783559279" transform="matrix(0.9849748140517796,-0.1726980477123647,0.1726980477123647,0.9849748140517796,307.0681370351329,55.017456436485475)" fill="#9e5cf7"></use><use xlink:href="#bbburst-shape-11" width="23.999753272388038" opacity="0.7402724842218835" transform="matrix(0.7330143395775984,0.6802131856805022,-0.6802131856805022,0.7330143395775984,749.6791519823819,19.453189091379045)" fill="none" stroke="#9e5cf7"></use><use xlink:href="#bbburst-shape-9" width="29.518441927708633" opacity="0.46215428291583704" transform="matrix(0.9979893676533333,0.0633815592337377,-0.0633815592337377,0.9979893676533333,285.7936964381223,207.01838195470373)" fill="none" stroke="#ff8e6f"></use><use xlink:href="#bbburst-shape-10" width="26.87497548332002" opacity="0.5739721200983403" transform="matrix(0.9976570231453937,0.06841391794562961,-0.06841391794562961,0.9976570231453937,354.5756818274443,182.3013292098015)" fill="none" stroke="#ff5d9f"></use><use xlink:href="#bbburst-shape-9" width="12.076115600699492" opacity="0.8960811284751793" transform="matrix(0.7403917630498311,-0.6721755999796205,0.6721755999796205,0.7403917630498311,173.36257109115417,108.55505584711938)" fill="none" stroke="#e354d4"></use><use xlink:href="#bbburst-shape-10" width="33.44948966922753" opacity="0.1507016679275166" transform="matrix(0.96907274063339,0.24677524868043466,-0.24677524868043466,0.96907274063339,216.42823476358657,282.596037558467)" fill="none" stroke="#ff5d9f"></use><use xlink:href="#bbburst-shape-9" width="30.436760926320144" opacity="0.2851541633530674" transform="matrix(0.9735213662086935,-0.22859604006884957,0.22859604006884957,0.9735213662086935,452.88939197404056,293.400409270389)" fill="none" stroke="#ff5d9f"></use><use xlink:href="#bbburst-shape-9" width="41.06782082371342" opacity="0.3541636338885126" transform="matrix(0.7296241631137349,-0.6838483608232032,0.6838483608232032,0.7296241631137349,366.9401337617003,-16.235295155951235)" fill="none" stroke="#9e5cf7"></use><use xlink:href="#bbburst-shape-4" width="33.76776993973935" opacity="0.35673196348036296" transform="matrix(0.9296052615790246,-0.3685567224249115,0.3685567224249115,0.9296052615790246,129.64235416465917,-234.4598299886061)" fill="#e354d4"></use><use xlink:href="#bbburst-shape-13" width="30.212092482991117" opacity="0.18155140757282795" transform="matrix(0.9300230890111826,-0.3675010937481654,0.3675010937481654,0.9300230890111826,212.24178348838717,400.874399075784)" fill="none" stroke="#9e5cf7"></use><use xlink:href="#bbburst-shape-10" width="32.04310180853965" opacity="0.6570028177078528" transform="matrix(0.984855926490762,0.17337475034163027,-0.17337475034163027,0.984855926490762,593.8663482857758,-61.06869364233836)" fill="none" stroke="#ff5d9f"></use><use xlink:href="#bbburst-shape-13" width="30.644172202595012" opacity="0.43554219220958534" transform="matrix(0.9676565346808831,0.25227134377369326,-0.25227134377369326,0.9676565346808831,254.45482757432168,-95.17718207894615)" fill="none" stroke="#ff8e6f"></use><use xlink:href="#bbburst-shape-4" width="29.101257670322195" opacity="0.32526532929359275" transform="matrix(0.9739479802930148,-0.22677154072580932,0.22677154072580932,0.9739479802930148,-7.3543791374882375,-12.660372728166976)" fill="#e354d4"></use><use xlink:href="#bbburst-shape-10" width="35.14706634504286" opacity="0.12515726356817858" transform="matrix(0.910482484081961,0.41354763471689887,-0.41354763471689887,0.910482484081961,390.4625071481636,388.7009752090315)" fill="none" stroke="#e354d4"></use><use xlink:href="#bbburst-shape-13" width="26.0887563743078" opacity="0.5253019886892536" transform="matrix(0.9297520390743887,0.3681862922991789,-0.3681862922991789,0.9297520390743887,441.9029931204284,-168.8926632605541)" fill="none" stroke="#ff5d9f"></use><use xlink:href="#bbburst-shape-10" width="17.794604059740067" opacity="0.757103966998947" transform="matrix(0.9234390236558959,-0.3837451883599919,0.3837451883599919,0.9234390236558959,346.247395647143,51.11173693075551)" fill="none" stroke="#9e5cf7"></use><use xlink:href="#bbburst-shape-10" width="35.80341211933857" opacity="-0.09111839824354218" transform="matrix(0.7298294670243192,0.6836292482501011,-0.6836292482501011,0.7298294670243192,308.6296328708184,-246.7356973566122)" fill="none" stroke="#ff8e6f"></use><use xlink:href="#bbburst-shape-2" width="17.236951205364765" opacity="0.8230202824545496" transform="matrix(0.7719425271616641,-0.6356923271200176,0.6356923271200176,0.7719425271616641,125.81360555871743,18.17950617336976)" fill="#9e5cf7"></use><use xlink:href="#bbburst-shape-14" width="31.6810931587953" opacity="0.11669449690663847" transform="matrix(0.7799938378342559,0.6257871946121848,-0.6257871946121848,0.7799938378342559,339.72634293797034,-184.68743726125962)" fill="none" stroke="#ff8e6f"></use><use xlink:href="#bbburst-shape-2" width="22.68108679423424" opacity="0.5876062721374109" transform="matrix(0.7520160166356703,0.6591448328883563,-0.6591448328883563,0.7520160166356703,725.6669831317377,263.37301314591986)" fill="#ff8e6f"></use></svg>